<svg xmlns="http://www.w3.org/2000/svg" width="40" height="40" viewBox="0 0 40 40">
    <path fill="#1B1B1B" fill-rule="evenodd" d="M0 20C0 8.954 8.954 0 20 0s20 8.954 20 20-8.954 20-20 20S0 31.046 0 20zm12.372-4.736a.784.784 0 0 0-.252-.658l-1.868-2.267V12h5.798l4.482 9.905L24.472 12H30v.339l-1.597 1.542a.472.472 0 0 0-.177.452v11.334a.472.472 0 0 0 .177.452l1.56 1.542V28H22.12v-.339l1.615-1.58c.159-.16.159-.207.159-.451v-9.162l-4.492 11.494h-.606l-5.23-11.494v7.704c-.043.324.064.65.29.884l2.101 2.568v.338H10v-.338l2.1-2.568a1.03 1.03 0 0 0 .272-.884v-8.908z"/>
</svg>
